<svg xmlns="http://www.w3.org/2000/svg" viewBox="0 0 512 512">
  <defs>
    <linearGradient id="face" x1="0" y1="0" x2="0" y2="1">
      <stop offset="0" stop-color="#f6cd8b" />
      <stop offset="1" stop-color="#dd9a41" />
    </linearGradient>
  </defs>

  <rect width="512" height="512" rx="115" ry="115" fill="#12151c" />

  <path
    d="M174,118 L212,168 L256,150 L300,168 L338,118 L368,190
       C400,230 400,300 340,345
       C320,362 290,375 256,380
       C222,375 192,362 172,345
       C112,300 112,230 144,190 Z"
    fill="url(#face)"
  />

  <g fill="#181b22">
    <circle cx="256" cy="178" r="7" />
    <circle cx="192" cy="248" r="8" />
    <circle cx="320" cy="248" r="8" />
    <circle cx="222" cy="300" r="6" />
    <circle cx="290" cy="300" r="6" />
  </g>

  <path
    d="M212,236 C207,264 200,292 210,332"
    fill="none"
    stroke="#181b22"
    stroke-width="12"
    stroke-linecap="round"
  />
  <path
    d="M300,236 C305,264 312,292 302,332"
    fill="none"
    stroke="#181b22"
    stroke-width="12"
    stroke-linecap="round"
  />

  <g fill="#181b22">
    <ellipse cx="210" cy="232" rx="15" ry="11" />
    <ellipse cx="302" cy="232" rx="15" ry="11" />
  </g>

  <path d="M244,298 L268,298 L256,314 Z" fill="#181b22" />
</svg>
